<?xml version="1.0" encoding="iso-8859-1"?>
<!-- Generator: Adobe Illustrator 19.0.0, SVG Export Plug-In . SVG Version: 6.00 Build 0)  -->
<svg version="1.1" id="Capa_1" xmlns="http://www.w3.org/2000/svg" xmlns:xlink="http://www.w3.org/1999/xlink" x="0px" y="0px"
	 viewBox="0 0 512 512" style="enable-background:new 0 0 512 512;" xml:space="preserve">
<g>
	<path style="fill:#35495E;" d="M478.19,219.807l-27.983-16.772h-0.088c0.088-5.738,0.088-11.652,0.088-17.655
		c0-97.103-70.621-123.586-70.621-123.586C335.448,0,256,0,256,0s-79.448,0-123.586,61.793c0,0-70.621,26.483-70.621,123.586
		c0,6.003,0,11.917,0.088,17.655h-0.088L33.81,219.807c-9.639,5.842-14.554,17.122-12.27,28.16l27.807,132.149
		c2.185,10.385,10.342,18.472,20.745,20.568l23.658,4.679l1.589,18.008c1.133,12.073,6.44,23.374,15.007,31.956
		c18.008,18.097,51.377,47.934,80.508,55.084h0.088c3.949,1.031,8.012,1.565,12.094,1.589h105.931
		c4.082-0.024,8.144-0.558,12.094-1.589h0.088c29.131-7.15,62.499-36.988,80.508-55.085c8.567-8.582,13.874-19.883,15.007-31.956
		l1.589-18.008l23.658-4.679c10.403-2.096,18.56-10.183,20.745-20.568l27.807-132.149
		C492.744,236.929,487.829,225.649,478.19,219.807z"/>
	<g>
		<path style="fill:#BDC3C7;" d="M97.103,185.379l8.386,167.636l-16.772-4.237l-0.353-0.088
			c-10.813-2.641-18.799-11.793-19.95-22.863c-2.295-22.863-5.914-65.766-6.532-122.792c-0.088-5.738-0.088-11.652-0.088-17.655
			c0-97.103,70.621-123.586,70.621-123.586C106.276,97.456,93.752,141.29,97.103,185.379z"/>
		<path style="fill:#7F8C8D;" d="M93.749,405.363l-23.658-4.679c-10.403-2.096-18.56-10.183-20.745-20.568L21.539,247.967
			c-2.284-11.038,2.631-22.318,12.27-28.16l27.983-16.772h0.088c0.618,57.026,4.237,99.928,6.532,122.792
			c1.152,11.071,9.138,20.223,19.95,22.863l0.353,0.088L93.749,405.363z"/>
		<path style="fill:#95A5A5;" d="M423.283,348.777l-5.032,56.585l-1.589,18.008c-1.133,12.073-6.44,23.374-15.007,31.956
			c-18.008,18.097-51.377,47.934-80.508,55.084h-0.088c-3.949,1.031-8.012,1.565-12.094,1.589H203.034
			c-4.082-0.024-8.144-0.558-12.094-1.589h-0.088c-29.131-7.15-62.499-36.988-80.508-55.085
			c-8.567-8.582-13.874-19.883-15.007-31.956l-1.589-18.008l-5.032-56.585l16.772,4.237l0.441,8.916c0,0,0,26.483,44.138,44.138
			C194.207,423.724,256,423.724,256,423.724s61.793,0,105.931-17.655c44.138-17.655,44.138-44.138,44.138-44.138l0.441-8.916
			L423.283,348.777z"/>
		<path style="fill:#BDC3C7;" d="M450.207,185.379c0,6.003,0,11.917-0.088,17.655c-0.618,57.026-4.237,99.928-6.532,122.792
			c-1.152,11.071-9.138,20.223-19.95,22.863l-0.353,0.088l-16.772,4.237l8.386-167.636c3.352-44.089-9.172-87.923-35.31-123.586
			C379.586,61.793,450.207,88.276,450.207,185.379z"/>
		<g>
			<path style="fill:#7F8C8D;" d="M490.461,247.967l-27.807,132.149c-2.185,10.385-10.342,18.472-20.745,20.568l-23.658,4.679
				l5.032-56.585l0.353-0.088c10.813-2.641,18.798-11.793,19.95-22.863c2.295-22.863,5.914-65.766,6.532-122.792h0.088
				l27.983,16.772C487.829,225.649,492.745,236.929,490.461,247.967z"/>
			<path style="fill:#7F8C8D;" d="M209.655,512h-6.621c-4.082-0.024-8.144-0.558-12.094-1.589h-0.088l-13.948-48.993
				c-1.287-4.67,1.441-9.502,6.104-10.813c4.663-1.311,9.509,1.391,10.845,6.047L209.655,512z"/>
			<path style="fill:#7F8C8D;" d="M335.095,461.418l-13.948,48.993h-0.088c-3.949,1.031-8.012,1.565-12.094,1.589h-6.621
				l15.801-55.349c1.336-4.656,6.182-7.358,10.845-6.047C333.655,451.916,336.382,456.748,335.095,461.418z"/>
		</g>
		<g>
			<path style="fill:#14A085;" d="M256,370.759c-2.952,0.028-5.719-1.436-7.358-3.892c-1.638-2.456-1.927-5.573-0.767-8.289
				c0.807-2.215,2.552-3.96,4.767-4.767c1.61-0.707,3.4-0.894,5.121-0.535c0.553,0.1,1.089,0.28,1.591,0.535
				c0.543,0.173,1.051,0.441,1.5,0.793c0.506,0.304,0.98,0.659,1.414,1.06c0.797,0.845,1.426,1.834,1.854,2.914
				c1.409,3.284,0.675,7.096-1.854,9.621c-0.859,0.779-1.844,1.406-2.914,1.854C258.293,370.505,257.153,370.745,256,370.759z"/>
			<path style="fill:#14A085;" d="M238.345,397.241c-2.348,0.022-4.606-0.901-6.268-2.56c-0.78-0.859-1.408-1.844-1.858-2.914
				c-0.491-1.048-0.732-2.197-0.702-3.354c0.013-1.153,0.251-2.292,0.703-3.353c0.427-1.081,1.058-2.07,1.857-2.914
				c2.535-2.509,6.334-3.241,9.621-1.854c2.217,0.804,3.963,2.55,4.767,4.767c0.943,2.136,0.943,4.571,0,6.707
				c-0.45,1.068-1.077,2.053-1.854,2.914C242.95,396.339,240.692,397.262,238.345,397.241z"/>
			<path style="fill:#14A085;" d="M273.655,397.241c-1.155-0.014-2.296-0.254-3.358-0.707c-2.215-0.807-3.96-2.552-4.767-4.767
				c-0.937-2.138-0.937-4.569,0-6.707c0.427-1.081,1.057-2.071,1.857-2.914c2.54-2.501,6.333-3.232,9.621-1.854
				c2.217,0.804,3.963,2.55,4.767,4.767c0.943,2.136,0.943,4.571,0,6.707c-0.45,1.068-1.077,2.053-1.854,2.914
				c-0.859,0.779-1.844,1.406-2.914,1.854C275.947,396.986,274.808,397.227,273.655,397.241z"/>
		</g>
		<g>
			<path style="fill:#CC66A1;" d="M194.207,123.586L194.207,123.586c9.751,0,17.655,7.904,17.655,17.655v79.448
				c0,9.751-7.904,17.655-17.655,17.655l0,0c-9.751,0-17.655-7.904-17.655-17.655v-79.448
				C176.552,131.491,184.456,123.586,194.207,123.586z"/>
			<circle style="fill:#CC66A1;" cx="194.207" cy="282.483" r="17.655"/>
			<path style="fill:#CC66A1;" d="M317.793,123.586L317.793,123.586c9.751,0,17.655,7.904,17.655,17.655v79.448
				c0,9.751-7.905,17.655-17.655,17.655l0,0c-9.751,0-17.655-7.904-17.655-17.655v-79.448
				C300.138,131.491,308.042,123.586,317.793,123.586z"/>
			<circle style="fill:#CC66A1;" cx="317.793" cy="282.483" r="17.655"/>
		</g>
	</g>
</g>
<g>
</g>
<g>
</g>
<g>
</g>
<g>
</g>
<g>
</g>
<g>
</g>
<g>
</g>
<g>
</g>
<g>
</g>
<g>
</g>
<g>
</g>
<g>
</g>
<g>
</g>
<g>
</g>
<g>
</g>
</svg>
