<?xml version="1.0" encoding="iso-8859-1"?>
<!-- Generator: Adobe Illustrator 19.0.0, SVG Export Plug-In . SVG Version: 6.00 Build 0)  -->
<svg version="1.1" id="Capa_1" xmlns="http://www.w3.org/2000/svg" xmlns:xlink="http://www.w3.org/1999/xlink" x="0px" y="0px"
	 viewBox="0 0 512 512" style="enable-background:new 0 0 512 512;" xml:space="preserve">
<g>
	<g>
		<g>
			<path d="M475.171,213.7l-22.963-13.767c0.029-4.033,0.059-8.055,0.059-12.2c0-90.214-59.052-120.99-71.481-126.474
				C335.838,0.807,259.279,0,256,0c-3.278,0-79.838,0.807-124.786,61.259c-12.429,5.484-71.481,36.26-71.481,126.474
				c0,4.154,0.029,8.173,0.06,12.2L36.8,213.717c-12.415,7.527-18.743,22.059-15.796,36.275l26.879,127.75
				c2.831,13.378,13.346,23.791,26.75,26.492l16.579,3.28l0.984,11.087c1.295,13.638,7.29,26.402,16.958,36.108
				c21.307,21.39,62.065,57.286,95.639,57.291l0.003,0h102.409l0.003,0c33.574-0.005,74.332-35.901,95.627-57.283
				c9.687-9.722,15.688-22.512,16.975-36.175l0.979-11.028l16.621-3.289c13.39-2.712,23.887-13.124,26.708-26.492L491,249.967
				C493.938,235.746,487.596,221.216,475.171,213.7z M143.48,73.225C182.988,17.917,255.288,17.067,256,17.067
				c0.725,0,72.867,0.642,112.521,56.158c23.988,32.988,35.523,73.404,32.559,114.083L392.534,358.4
				c0,0.2-1.017,20.225-37.304,34.742C314.63,409.383,256.58,409.6,256,409.6c-0.579,0-58.629-0.217-99.229-16.458
				c-35.992-14.392-37.271-34.092-37.316-35.167l-8.609-171.45C107.976,146.087,119.539,105.941,143.48,73.225z M77.984,387.492
				c-6.715-1.356-11.981-6.573-13.4-13.275L37.709,246.5c-1.474-7.116,1.687-14.39,7.896-18.167l14.524-8.707
				c0.753,36.437,2.732,71.654,6.05,104.749c1.3,12.098,8.961,22.58,20.094,27.491l3.367,37.932L77.984,387.492z M96.991,337.57
				c-0.089-0.03-0.179-0.041-0.269-0.068l-0.734-0.185c-6.936-1.703-12.064-7.566-12.829-14.667
				c-3.717-37.042-5.825-76.717-6.275-117.975c-0.083-5.509-0.083-11.184-0.083-16.942c0-46.071,17.096-74.305,33.453-90.886
				C96.877,125.32,91.23,156.812,93.88,188.158l7.534,150.528L96.991,337.57z M402.813,416.983
				c-0.917,9.699-5.18,18.776-12.058,25.675c-13.572,13.63-45.054,42.897-71.718,50.44l13.435-47.023
				c1.293-4.531-1.332-9.253-5.863-10.546c-4.531-1.293-9.253,1.332-10.546,5.863l-15.297,53.542h-89.53l-15.297-53.542
				c-0.837-2.931-3.173-5.193-6.13-5.934c-2.957-0.741-6.084,0.152-8.204,2.342c-2.12,2.19-2.911,5.345-2.074,8.276l13.435,47.023
				c-26.665-7.542-58.148-36.811-71.731-50.448c-6.859-6.883-11.116-15.935-12.042-25.609l-4.199-47.315
				c4.259,10.862,15.533,27.299,45.437,39.265c43.692,17.475,103.067,17.675,105.571,17.675c2.504,0,61.879-0.2,105.571-17.675
				c29.88-11.956,41.16-28.379,45.424-39.134L402.813,416.983z M415.617,337.408l-0.357,0.09c-0.09,0.027-0.18,0.039-0.268,0.068
				l-4.4,1.112l7.455-149.737c2.779-31.387-2.748-62.953-16.026-91.529c16.267,16.732,33.18,44.934,33.18,90.321
				c0,5.758,0,11.433-0.083,16.975c-0.45,41.224-2.558,80.9-6.271,117.917C428.034,329.867,422.725,335.8,415.617,337.408z
				 M474.296,246.475L474.296,246.475l-26.879,127.733c-1.409,6.692-6.658,11.908-13.358,13.275l-11.698,2.315l3.362-37.884
				c11.151-4.928,18.817-15.441,20.103-27.564c3.316-33.08,5.294-68.301,6.047-104.723l14.495,8.69
				C472.585,232.082,475.761,239.354,474.296,246.475z"/>
			<path d="M252.755,366.25c3.175,1.363,6.861,0.655,9.304-1.788s3.153-6.128,1.791-9.304c-0.413-1.044-1.021-2-1.792-2.817
				c-0.83-0.753-1.783-1.359-2.817-1.792c-1.556-0.684-3.287-0.865-4.95-0.517c-0.535,0.096-1.053,0.27-1.537,0.517
				c-0.524,0.169-1.015,0.428-1.45,0.767c-0.489,0.293-0.945,0.637-1.362,1.025c-0.773,0.815-1.383,1.772-1.796,2.817
				c-1.357,3.176-0.646,6.858,1.796,9.301C250.77,365.212,251.722,365.818,252.755,366.25z"/>
			<path d="M232.875,390.059c3.365,3.3,8.752,3.3,12.117,0c0.751-0.832,1.357-1.784,1.792-2.817c0.911-2.065,0.911-4.418,0-6.483
				c-0.413-1.044-1.021-2-1.792-2.817c-2.453-2.425-6.126-3.133-9.304-1.792c-2.141,0.78-3.828,2.467-4.608,4.608
				c-0.906,2.066-0.906,4.417,0,6.483C231.515,388.275,232.122,389.228,232.875,390.059z"/>
			<path d="M265.213,387.242c0.78,2.141,2.467,3.828,4.608,4.608c3.176,1.362,6.862,0.653,9.305-1.791
				c0.751-0.832,1.357-1.784,1.792-2.817c0.911-2.065,0.911-4.418,0-6.483c-0.413-1.044-1.021-2-1.792-2.817
				c-0.83-0.753-1.783-1.359-2.817-1.792c-3.181-1.299-6.829-0.596-9.3,1.792c-0.773,0.815-1.383,1.772-1.796,2.817
				C264.308,382.825,264.308,385.176,265.213,387.242L265.213,387.242z"/>
			<path d="M196.267,247.467c14.132-0.015,25.585-11.468,25.6-25.6v-76.8c0-14.138-11.461-25.6-25.6-25.6s-25.6,11.461-25.6,25.6
				v76.8C170.683,235.999,182.135,247.451,196.267,247.467z M187.734,145.067c0-4.713,3.82-8.533,8.533-8.533
				s8.533,3.82,8.533,8.533v76.8c0,4.713-3.82,8.533-8.533,8.533s-8.533-3.82-8.533-8.533V145.067z"/>
			<path d="M196.267,307.2c14.138,0,25.6-11.462,25.6-25.6c0-14.138-11.461-25.6-25.6-25.6s-25.6,11.462-25.6,25.6
				C170.683,295.732,182.135,307.185,196.267,307.2z M196.267,273.067c4.713,0,8.533,3.821,8.533,8.533s-3.82,8.533-8.533,8.533
				s-8.533-3.82-8.533-8.533C187.739,276.889,191.556,273.071,196.267,273.067z"/>
			<path d="M315.734,247.467c14.132-0.015,25.585-11.468,25.6-25.6v-76.8c0-14.138-11.461-25.6-25.6-25.6s-25.6,11.461-25.6,25.6
				v76.8C290.149,235.999,301.602,247.451,315.734,247.467z M307.201,145.067c0-4.713,3.82-8.533,8.533-8.533
				s8.533,3.82,8.533,8.533v76.8c0,4.713-3.82,8.533-8.533,8.533s-8.533-3.82-8.533-8.533V145.067z"/>
			<path d="M315.734,307.2c14.138,0,25.6-11.462,25.6-25.6c0-14.138-11.461-25.6-25.6-25.6s-25.6,11.462-25.6,25.6
				C290.149,295.732,301.602,307.185,315.734,307.2z M315.734,273.067c4.713,0,8.533,3.821,8.533,8.533s-3.82,8.533-8.533,8.533
				s-8.533-3.82-8.533-8.533C307.205,276.889,311.023,273.071,315.734,273.067z"/>
		</g>
	</g>
</g>
<g>
</g>
<g>
</g>
<g>
</g>
<g>
</g>
<g>
</g>
<g>
</g>
<g>
</g>
<g>
</g>
<g>
</g>
<g>
</g>
<g>
</g>
<g>
</g>
<g>
</g>
<g>
</g>
<g>
</g>
</svg>
